<?xml version="1.0" standalone="no"?>
<!DOCTYPE svg PUBLIC "-//W3C//DTD SVG 20010904//EN"
 "http://www.w3.org/TR/2001/REC-SVG-20010904/DTD/svg10.dtd">
<svg version="1.0" xmlns="http://www.w3.org/2000/svg"
 width="230.000000pt" height="230.000000pt" viewBox="0 0 230.000000 230.000000"
 preserveAspectRatio="xMidYMid meet">
<metadata>
Created by potrace 1.14, written by Peter Selinger 2001-2017
</metadata>
<g transform="translate(0.000000,230.000000) scale(0.100000,-0.100000)"
fill="#000000" stroke="none">
<path d="M995 2220 c-16 -18 -20 -18 -46 -5 -15 8 -35 15 -44 15 -27 0 -73
-29 -80 -50 -5 -17 -12 -19 -49 -14 -36 5 -47 2 -74 -21 -22 -18 -32 -36 -32
-55 0 -22 -5 -29 -29 -33 -34 -7 -69 -41 -77 -74 l-6 -23 -31 22 c-43 31 -128
30 -178 0 -96 -59 -107 -203 -21 -279 23 -21 79 -43 109 -43 7 0 20 -14 28
-31 l16 -30 -72 -67 c-123 -114 -205 -247 -250 -405 -32 -110 -34 -336 -5
-437 82 -282 287 -502 549 -590 555 -185 1125 222 1125 805 0 265 -120 510
-330 672 -151 115 -327 175 -518 173 -135 -1 -203 -13 -314 -56 -41 -16 -41
-16 -67 29 -7 13 -7 29 1 53 7 19 10 52 8 73 -3 36 -2 38 22 32 58 -15 113 23
113 79 0 25 4 30 25 30 15 0 37 13 56 33 27 29 36 33 71 29 30 -3 47 2 65 16
21 17 27 17 49 6 33 -17 49 -17 82 0 23 12 28 11 53 -11 29 -24 89 -32 102
-12 4 7 17 0 35 -17 20 -19 40 -28 64 -28 25 -1 37 -6 41 -19 10 -30 46 -57
79 -57 27 0 34 -6 48 -39 12 -27 27 -43 47 -50 27 -9 29 -12 20 -36 -18 -48
25 -105 82 -110 25 -2 34 -8 36 -23 5 -30 58 -72 92 -72 16 0 42 11 58 25 25
21 31 22 43 10 8 -8 28 -17 44 -21 35 -7 81 23 96 63 5 13 14 21 20 18 24 -15
80 6 99 38 28 44 25 74 -9 108 -38 38 -91 40 -126 4 -14 -13 -25 -31 -25 -38
0 -11 -11 -15 -40 -14 -28 1 -46 -6 -64 -22 -23 -22 -26 -22 -48 -7 -12 9 -34
16 -48 16 -21 0 -29 7 -39 36 -8 23 -24 40 -46 51 -27 13 -32 20 -26 36 19 52
-26 111 -84 111 -27 0 -35 4 -35 17 0 32 -43 70 -80 72 -27 2 -38 8 -51 32
-20 38 -71 57 -113 42 -22 -8 -31 -7 -34 2 -5 16 -56 41 -84 41 -13 0 -31 -7
-41 -14 -16 -12 -21 -11 -42 10 -31 31 -94 33 -120 4z m95 -30 c24 -24 25 -47
3 -72 -18 -20 -63 -24 -81 -6 -29 29 -1 98 40 98 10 0 27 -9 38 -20z m-134
-35 c13 -52 -38 -89 -81 -61 -30 20 -33 58 -5 86 16 16 24 18 50 9 18 -7 32
-20 36 -34z m295 3 c28 -52 -29 -104 -78 -73 -19 13 -23 23 -21 48 5 53 75 71
99 25z m137 -28 c26 -25 26 -23 7 -60 -31 -61 -120 -21 -96 43 16 41 55 48 89
17z m-592 -11 c23 -19 17 -66 -10 -84 -54 -36 -110 33 -65 81 22 23 49 24 75
3z m720 -74 c9 -14 13 -32 9 -45 -15 -46 -83 -49 -104 -4 -27 59 59 104 95 49z
m-824 -42 c10 -9 18 -26 18 -39 0 -24 -33 -54 -59 -54 -23 0 -51 31 -51 56 0
48 55 70 92 37z m940 -40 c22 -20 23 -51 1 -75 -33 -36 -93 -13 -93 37 0 49
55 72 92 38z m-1155 -33 c62 -22 84 -114 36 -148 -65 -46 -91 -54 -121 -38
-73 38 -71 150 3 182 37 16 45 17 82 4z m1232 -111 c16 -17 18 -26 9 -50 -18
-53 -83 -51 -102 4 -20 54 52 90 93 46z m399 5 c24 -17 30 -62 10 -82 -29 -29
-98 -1 -98 40 0 21 34 58 53 58 7 0 23 -7 35 -16z m-126 -81 c34 -31 11 -93
-35 -93 -27 0 -57 28 -57 53 0 48 56 73 92 40z m-164 -9 c50 -35 11 -114 -47
-93 -46 18 -54 52 -21 87 25 26 38 27 68 6z"/>
</g>
</svg>
